HIERARCHY
ROOT Hips
{
	OFFSET -0.001795 -0.223333 0.028219
	CHANNELS 6 Xposition Yposition Zposition Zrotation Yrotation Xrotation 
	JOINT LeftUpLeg
	{
		OFFSET 0.069520 -0.091406 -0.006815
		CHANNELS 3 Zrotation Yrotation Xrotation
		JOINT LeftLeg
		{
			OFFSET 0.034277 -0.375199 -0.004496
			CHANNELS 3 Zrotation Yrotation Xrotation
			JOINT LeftFoot
			{
				OFFSET -0.013596 -0.397961 -0.043693
				CHANNELS 3 Zrotation Yrotation Xrotation
				JOINT LeftToe
				{
					OFFSET 0.026358 -0.055791 0.119288
					CHANNELS 3 Zrotation Yrotation Xrotation
					End Site
					{
						OFFSET 0.000000 0.000000 0.000000
					}
				}
			}
		}
	}
	JOINT RightUpLeg
	{
		OFFSET -0.067670 -0.090522 -0.004320
		CHANNELS 3 Zrotation Yrotation Xrotation
		JOINT RightLeg
		{
			OFFSET -0.038290 -0.382569 -0.008850
			CHANNELS 3 Zrotation Yrotation Xrotation
			JOINT RightFoot
			{
				OFFSET 0.015774 -0.398415 -0.042312
				CHANNELS 3 Zrotation Yrotation Xrotation
				JOINT RightToe
				{
					OFFSET -0.025372 -0.048144 0.123348
					CHANNELS 3 Zrotation Yrotation Xrotation
					End Site
					{
						OFFSET 0.000000 0.000000 0.000000
					}
				}
			}
		}
	}
	JOINT Spine
	{
		OFFSET -0.002533 0.108963 -0.026696
		CHANNELS 3 Zrotation Yrotation Xrotation
		JOINT Spine1
		{
			OFFSET 0.005487 0.135180 0.001092
			CHANNELS 3 Zrotation Yrotation Xrotation
			JOINT Spine2
			{
				OFFSET 0.001457 0.052922 0.025425
				CHANNELS 3 Zrotation Yrotation Xrotation
				JOINT Neck
				{
					OFFSET -0.002778 0.213870 -0.042857
					CHANNELS 3 Zrotation Yrotation Xrotation
					JOINT Head
					{
						OFFSET 0.005152 0.064970 0.051349
						CHANNELS 3 Zrotation Yrotation Xrotation
						End Site
						{
							OFFSET 0.000000 0.000000 0.000000
						}
					}
				}
				JOINT LeftShoulder
				{
					OFFSET 0.078845 0.121749 -0.034090
					CHANNELS 3 Zrotation Yrotation Xrotation
					JOINT LeftArm
					{
						OFFSET 0.090977 0.030469 -0.008868
						CHANNELS 3 Zrotation Yrotation Xrotation
						JOINT LeftForeArm
						{
							OFFSET 0.259612 -0.012772 -0.027456
							CHANNELS 3 Zrotation Yrotation Xrotation
							JOINT LeftHand
							{
								OFFSET 0.249234 0.008986 -0.001171
								CHANNELS 3 Zrotation Yrotation Xrotation
								End Site
								{
									OFFSET 0.000000 0.000000 0.000000
								}
							}
						}
					}
				}
				JOINT RightShoulder
				{
					OFFSET -0.081759 0.118833 -0.038615
					CHANNELS 3 Zrotation Yrotation Xrotation
					JOINT RightArm
					{
						OFFSET -0.096012 0.032551 -0.009143
						CHANNELS 3 Zrotation Yrotation Xrotation
						JOINT RightForeArm
						{
							OFFSET -0.253742 -0.013329 -0.021401
							CHANNELS 3 Zrotation Yrotation Xrotation
							JOINT RightHand
							{
								OFFSET -0.255298 0.007772 -0.005559
								CHANNELS 3 Zrotation Yrotation Xrotation
								End Site
								{
									OFFSET 0.000000 0.000000 0.000000
								}
							}
						}
					}
				}
			}
		}
	}
}
MOTION
Frames: 7
Frame Time: 0.050000
0.006796 0.937161 0.281725 -12.959265 62.888259 -14.501876 18.169969 -6.242416 7.608925 -3.641837 -0.267562 1.864736 -6.029654 -4.500523 6.435164 0.000000 0.000000 0.000000 -3.063791 -1.435711 4.760255 5.187055 -2.214214 3.248377 -17.430963 -25.845041 25.761385 0.000000 0.000000 0.000000 -0.735752 -0.297202 -6.107454 -1.371368 0.076274 -0.806985 -9.131106 22.397406 0.239818 23.034213 -13.611721 -10.216564 0.000000 0.000000 0.000000 0.990620 -12.221349 1.217773 -50.546608 -39.410499 3.404110 167.501209 -45.891585 -169.568828 0.000000 0.000000 0.000000 -3.410347 18.369362 10.912230 0.202894 26.695846 0.163341 -42.666274 4.195576 3.544632 0.000000 0.000000 0.000000 
0.013367 0.936136 0.279888 -12.310029 62.871789 -13.624336 17.083158 -5.912264 8.076349 -3.389168 -0.270162 0.495145 -5.264048 -2.498871 7.236286 0.000000 0.000000 0.000000 -4.009940 -1.551243 4.586499 4.972198 -2.117888 3.153081 -17.090700 -24.269658 27.264821 0.000000 0.000000 0.000000 -0.546920 -0.241211 -5.632195 -1.367130 0.162585 -1.168618 -9.137145 22.071005 0.207502 22.639357 -13.003570 -10.457496 0.000000 0.000000 0.000000 -0.420791 -13.341608 0.541435 -49.753170 -37.871499 3.734083 166.020551 -45.930631 -166.589751 0.000000 0.000000 0.000000 -3.327523 18.403943 10.959103 0.931044 27.184462 0.274427 -46.004249 6.265357 3.279880 0.000000 0.000000 0.000000 
0.020214 0.934979 0.277934 -11.559461 62.237665 -12.784046 16.321143 -5.656638 8.535586 -2.883832 -0.241340 0.254263 -5.561628 -2.998688 7.158740 0.000000 0.000000 0.000000 -5.072148 -1.667540 4.290417 5.094847 -2.137691 3.248970 -16.741237 -22.896748 28.769294 0.000000 0.000000 0.000000 -0.706663 -0.243072 -5.532406 -1.401796 0.281497 -1.533267 -8.633425 21.419898 0.761939 22.253104 -13.519554 -9.362670 0.000000 0.000000 0.000000 -1.548628 -14.166210 0.071212 -49.634743 -37.157490 4.157505 164.080938 -45.476324 -161.823426 0.000000 0.000000 0.000000 -3.125825 18.214652 10.764119 2.150028 28.262927 0.472750 -50.008800 7.496896 3.363103 0.000000 0.000000 0.000000 
0.027509 0.934062 0.275826 -10.626063 60.833795 -11.617696 15.403800 -5.356245 9.237521 -2.694697 -0.224149 -0.535961 -5.136167 -1.810605 7.739607 0.000000 0.000000 0.000000 -5.944547 -1.724067 3.959703 4.750791 -1.929487 3.101578 -15.614990 -20.811246 29.427436 0.000000 0.000000 0.000000 -0.721869 -0.274607 -6.120438 -1.105188 0.379951 -2.241773 -8.553106 20.750405 1.490267 21.561677 -12.695949 -9.519483 0.000000 0.000000 0.000000 -1.404937 -15.405696 0.533642 -50.626113 -37.826960 4.407494 162.027540 -45.655174 -158.878209 0.000000 0.000000 0.000000 -2.763889 18.371280 10.890107 3.878364 30.086989 0.823297 -55.321115 8.459777 3.606820 0.000000 0.000000 0.000000 
0.035005 0.933820 0.273887 -9.497078 58.868802 -10.355573 14.263753 -5.011281 10.234218 -2.359841 -0.194088 -1.130314 -4.616722 -0.774941 8.061852 0.000000 0.000000 0.000000 -7.082955 -1.816127 3.609360 5.326160 -2.022678 2.934535 -15.021944 -20.096499 29.501298 0.000000 0.000000 0.000000 -0.948969 -0.341813 -6.900986 -1.130286 0.457426 -2.361377 -7.946376 19.137144 1.983972 20.563164 -12.666832 -8.339154 0.000000 0.000000 0.000000 -2.396900 -16.589733 0.523904 -51.835662 -37.485452 5.084934 160.244165 -45.027472 -154.863135 0.000000 0.000000 0.000000 -2.396391 18.372173 10.612956 4.687678 33.720328 1.266487 -59.745890 8.618484 3.852610 0.000000 0.000000 0.000000 
0.042218 0.933478 0.272477 -8.781591 56.819521 -9.690869 12.943347 -4.642344 11.436289 -1.700876 -0.145673 -1.409048 -3.304210 0.813394 7.779879 0.000000 0.000000 0.000000 -7.580663 -1.766735 2.969601 5.073778 -1.907843 3.401651 -14.688253 -19.499798 30.357934 0.000000 0.000000 0.000000 -0.874202 -0.348006 -7.323624 -0.748278 0.499460 -3.021965 -8.005743 17.646982 2.702371 19.829119 -12.897822 -7.129161 0.000000 0.000000 0.000000 -2.226309 -17.318832 1.094704 -52.625815 -38.899897 5.652648 158.630683 -45.108558 -152.174711 0.000000 0.000000 0.000000 -2.080939 18.360726 10.404284 5.616545 36.792522 1.735189 -64.111845 8.868925 4.060145 0.000000 0.000000 0.000000 
0.048695 0.933376 0.271481 -8.051296 54.069721 -8.884441 11.636840 -4.275165 12.768642 -1.315892 -0.119759 -2.469435 -1.849064 3.610607 8.934582 0.000000 0.000000 0.000000 -8.258131 -1.730966 2.295363 5.594329 -2.021766 3.762069 -14.045613 -19.232789 29.366827 0.000000 0.000000 0.000000 -0.534420 -0.370634 -8.295365 -0.527368 0.512785 -3.301647 -8.039224 16.125723 3.088561 18.602712 -12.425220 -6.172556 0.000000 0.000000 0.000000 -2.136136 -18.278776 1.750069 -52.996388 -40.484837 6.404436 154.598919 -45.853405 -145.570364 0.000000 0.000000 0.000000 -2.257285 18.624062 10.012461 7.299056 40.421193 2.632334 -67.330226 9.265801 3.919472 0.000000 0.000000 0.000000 
